PathFileType	3	(X/Y/Z)	D:\minhoCalibration\240510\subject5_KPNP\preferred\preferred07.trc
DataRate	CameraRate	NumFrames	NumMarkers	Units	OrigDataRate	OrigDataStartFrame	OrigNumFrames
200.0	200.0	24	10	mm	200.0	307	131	
Frame#	Time	Left_Ankle_Outer1			Left_Ankle_Inner1			Left_Knee_Outer1			Left_Knee_Inner1			Left_Wrist1			Right_Wrist1			Right_Knee_Inner1			Right_Knee_Outer1			Right_Ankle_Inner1			Right_Ankle_Outer1			
		X1	Y1	Z1	X2	Y2	Z2	X3	Y3	Z3	X4	Y4	Z4	X5	Y5	Z5	X6	Y6	Z6	X7	Y7	Z7	X8	Y8	Z8	X9	Y9	Z9	X10	Y10	Z10	
307	1.525	-362.5022	76.302605	-635.24854	-396.84247	90.938042	-596.33429	-204.76408	529.03333	-580.15588	-258.79114	514.4563	-503.92001	-219.65829	969.5777	-710.52289	-383.54425	1189.741	-522.81445	-399.64188	995.57062	-77.544548	-444.2551	1070.2646	-98.567223	-510.70911	879.53192	332.4353	-594.53644	925.8775	314.42725
308	1.53	-362.41623	76.52562	-635.23859	-396.83371	90.598526	-597.47363	-204.71324	529.04761	-580.56635	-258.47412	514.57159	-504.29672	-217.6297	970.53601	-708.72852	-384.42578	1188.3568	-525.24872	-402.03607	991.75183	-78.769135	-446.87717	1066.5457	-99.298431	-517.23523	869.57166	328.74957	-601.64819	915.45471	310.319
309	1.535	-362.37952	76.801949	-635.23981	-396.68759	90.934624	-597.1629	-204.62926	529.21039	-581.01971	-258.30237	514.7486	-504.63647	-214.76567	971.51715	-707.56665	-385.6716	1187.9169	-526.302	-404.50558	987.68817	-80.056618	-449.21985	1062.546	-100.12553	-523.94843	859.41821	324.9025	-608.51672	904.64301	305.66992
310	1.54	-362.41617	76.982628	-635.16443	-396.96213	91.534111	-596.03601	-204.73167	529.28705	-581.32385	-258.46762	514.96936	-504.85211	-212.77126	972.03638	-705.93982	-387.60883	1187.9611	-526.58264	-406.97482	983.44452	-81.427818	-451.62375	1058.5625	-100.97791	-530.62311	848.75214	320.58948	-615.33698	893.15918	300.56357
311	1.545	-362.39825	77.122269	-635.10614	-396.78629	91.981651	-595.70129	-204.87134	529.44019	-581.50995	-258.76352	515.18188	-505.02814	-210.74988	972.56683	-704.38965	-388.80496	1187.6234	-527.81329	-409.56335	979.01379	-82.772636	-454.09161	1054.3873	-101.90871	-537.48456	837.84393	315.88663	-622.0177	881.76459	295.09058
312	1.55	-362.37704	77.346268	-635.07367	-396.68063	91.522697	-597.04169	-205.08583	529.58197	-581.61169	-259.10876	515.38068	-505.2175	-208.71165	973.16431	-702.86267	-390.02298	1187.4476	-528.79297	-412.18277	974.40149	-84.199707	-456.52191	1050.0342	-102.90497	-544.11621	826.39758	309.72653	-629.15485	870.33606	289.55066
313	1.555	-362.36652	77.584564	-634.99042	-396.92874	91.772072	-596.25452	-205.48796	529.72693	-581.62018	-259.73157	515.67859	-505.46582	-206.60332	973.86542	-701.46686	-391.21835	1187.1119	-529.92267	-414.7117	969.77478	-85.604187	-459.07614	1045.5665	-103.93829	-551.03955	814.84174	304.28748	-635.83398	857.97217	283.23523
314	1.56	-362.40985	77.720428	-634.96649	-396.69513	92.507294	-595.88104	-205.81107	529.94678	-581.63239	-260.47876	515.89703	-505.63693	-204.56624	974.62805	-700.09552	-392.36127	1186.7295	-530.86792	-417.28271	965.05902	-87.017731	-461.73654	1041.0265	-104.99601	-557.78955	802.80536	298.38205	-642.64569	845.64545	276.75275
315	1.565	-362.39236	77.875511	-634.95508	-396.8905	92.118599	-596.3866	-206.16246	530.11548	-581.60626	-261.23648	516.1391	-505.86093	-202.4485	975.56262	-698.87262	-393.49615	1186.3512	-531.84412	-419.79761	960.28192	-88.47924	-464.26538	1036.2323	-106.21473	-564.59479	790.44745	291.91641	-649.46698	833.06104	269.87415
316	1.57	-362.32819	78.072945	-634.94958	-396.99634	92.377716	-596.24719	-206.52283	530.33636	-581.49365	-262.12463	516.29132	-505.98563	-200.34491	976.62927	-697.7464	-394.78073	1185.8286	-532.64709	-422.21768	955.48401	-89.909821	-467.15411	1031.3544	-107.34692	-571.35645	777.92877	285.20114	-656.21594	820.41071	262.63364
317	1.575	-362.30103	78.252541	-634.87189	-396.71756	92.263176	-596.77148	-206.88869	530.53918	-581.4375	-262.6998	516.40674	-506.17517	-198.06764	977.7807	-696.74329	-395.77258	1185.1542	-533.49982	-424.57071	950.58472	-91.454102	-469.86334	1026.2489	-108.72442	-578.04907	765.13049	278.0452	-662.61005	807.16028	254.79182
318	1.58	-362.30862	78.520149	-634.87366	-397.0777	92.510925	-596.43774	-207.17924	530.5979	-581.36774	-263.44034	516.60864	-506.44345	-195.39975	979.24084	-696.05908	-396.89301	1184.5182	-534.20337	-426.94971	945.55133	-93.016403	-472.90726	1020.9078	-110.14425	-584.68048	752.10638	270.45181	-669.50165	793.72998	246.87955
319	1.585	-362.26819	78.531937	-634.86182	-396.86057	92.86953	-596.19037	-207.33917	530.80682	-581.43658	-264.76892	517.05304	-507.2009	-192.86034	980.5434	-695.27319	-397.9256	1183.6537	-535.14819	-429.28427	940.43152	-94.785545	-475.84204	1015.3188	-111.78596	-591.0954	738.8819	262.4566	-675.92474	780.22473	238.43637
320	1.59	-362.10825	78.653625	-634.97168	-396.46924	92.463348	-597.117	-207.44354	530.93604	-581.58112	-265.55417	517.19714	-507.73032	-190.78975	981.6958	-694.20386	-399.18182	1182.7438	-535.86993	-431.58728	935.16284	-96.71804	-479.08133	1009.3953	-113.48206	-597.56439	725.64667	254.02516	-682.21326	766.59753	229.5901
321	1.595	-361.90497	78.855209	-635.1366	-396.59045	92.435944	-597.7287	-207.72821	530.98846	-581.75952	-266.04266	517.41907	-508.36246	-188.33035	982.90558	-693.23761	-400.51035	1181.7103	-536.68573	-433.86597	929.66089	-98.814674	-482.33688	1003.2104	-115.42524	-603.82001	712.28729	245.7943	-688.51862	752.74023	220.52982
322	1.6	-361.66745	79.024078	-635.30042	-396.50323	92.971001	-596.83563	-207.82262	531.1264	-581.99213	-266.77759	517.74988	-508.98837	-185.90048	984.15338	-692.22711	-401.78586	1180.6261	-537.4873	-436.10776	923.92102	-101.05471	-485.64398	996.8255	-117.39363	-610.2298	698.11725	236.42247	-694.54871	738.84802	210.97058
323	1.605	-361.38953	79.103714	-635.52625	-396.63147	93.143806	-597.125	-207.94588	531.31665	-582.35547	-267.33771	517.9173	-509.58258	-183.67424	985.33868	-691.05505	-403.20895	1179.4045	-538.42395	-438.47931	917.83807	-103.64725	-488.77475	989.966	-119.68421	-616.43292	684.1687	227.24445	-700.38977	724.8996	201.13327
324	1.61	-361.12439	79.081078	-635.71899	-396.34412	93.171295	-597.56921	-207.99631	531.45886	-582.66785	-267.96442	518.23102	-510.1347	-181.53836	986.60657	-689.89874	-404.46976	1178.2056	-539.4978	-440.79858	911.47845	-106.45582	-492.28445	982.87305	-122.40024	-622.26025	670.05518	217.54909	-706.09363	710.94568	191.14749
325	1.615	-360.5835	79.290695	-636.1001	-395.79538	93.35041	-597.76947	-208.07994	531.61157	-582.94989	-268.30887	518.34027	-510.98221	-179.62709	987.91376	-688.66339	-405.76852	1176.9836	-540.61957	-443.28836	904.75549	-109.4983	-495.65759	975.51819	-125.16038	-627.83398	655.85138	207.45084	-711.56927	696.87567	180.79185
326	1.62	-360.29828	79.421669	-636.40936	-395.39462	93.960938	-597.91376	-207.96516	531.70502	-583.33612	-268.62131	518.91693	-511.44147	-177.57896	989.24451	-687.62384	-407.06174	1175.7511	-541.86188	-445.83649	897.81207	-112.72003	-498.99191	967.97052	-128.13582	-633.48358	641.45056	197.12968	-716.71936	682.66119	170.24591
327	1.625	-359.98032	79.472771	-636.7348	-395.22305	93.721848	-599.10712	-207.80031	531.8642	-583.56207	-268.91483	518.23712	-513.48853	-175.62338	990.40021	-686.54608	-408.18124	1174.4344	-543.19067	-448.52359	890.51709	-116.24271	-502.37717	960.28381	-131.27425	-638.61151	626.91473	186.44446	-721.74396	668.4978	159.42969
328	1.63	-359.54932	79.528351	-637.07068	-394.78558	93.797195	-599.02399	-207.48009	532.05219	-583.75903	-269.38068	518.9472	-513.09644	-173.65434	991.47894	-685.47485	-409.41086	1173.0453	-544.48389	-451.35748	883.08173	-119.9727	-505.7959	952.43964	-134.59497	-643.49048	612.552	175.38661	-726.5025	654.14789	148.3644
329	1.635	-359.15903	79.586365	-637.35535	-394.62701	94.034546	-599.48956	-207.22939	532.00488	-583.83478	-269.55121	519.07953	-513.73358	-171.52612	992.39014	-684.48676	-410.48395	1171.7169	-545.78802	-454.29944	875.35339	-123.89433	-509.21561	944.43274	-138.17476	-648.16553	597.91266	164.07269	-730.89642	639.63214	136.94875
330	1.64	-358.72971	79.658684	-637.66443	-394.23999	94.233086	-599.99127	-206.50046	532.11505	-584.15942	-269.56845	518.66541	-515.49854	-169.65509	993.20337	-683.40533	-411.65155	1170.1741	-546.93494	-457.16949	867.57251	-127.95268	-512.73413	936.37195	-141.84291	-652.43292	583.29327	152.63258	-735.0351	625.02686	125.21666
